<svg xmlns="http://www.w3.org/2000/svg" width="140" height="140" viewBox="0 0 140 140">
  <g id="about_icon" transform="translate(-41 7)">
    <g id="Group_1" data-name="Group 1" transform="translate(6 -1)">
      <path id="Path_9" data-name="Path 9" d="M75,5a70,70,0,1,0,70,70A70,70,0,0,0,75,5Zm0,134.815A64.815,64.815,0,1,1,139.815,75,64.815,64.815,0,0,1,75,139.815Z" transform="translate(30 -11)" fill="rgba(0,111,255,0.69)"/>
      <path id="Path_10" data-name="Path 10" d="M41.474,13a14.333,14.333,0,1,0,10.276,4.2A14.474,14.474,0,0,0,41.474,13Zm0,23.16a8.684,8.684,0,1,1,8.684-8.684,8.53,8.53,0,0,1-8.684,8.684Zm0,11.58A14.333,14.333,0,0,0,27,62.214v46.311a14.475,14.475,0,0,0,28.95,0V62.214A14.333,14.333,0,0,0,41.474,47.74Zm8.684,60.793a8.685,8.685,0,0,1-17.37,0V62.221a8.685,8.685,0,1,1,17.37,0Z" transform="translate(64 -4)" fill="#006fff"/>
    </g>
  </g>
</svg>
