<svg xmlns="http://www.w3.org/2000/svg" width="110.97" height="110.97" viewBox="0 0 110.97 110.97">
  <g id="resize_icon" transform="translate(768.689 231.569)">
    <g id="Group_2" data-name="Group 2" transform="translate(-19 -19)">
      <path id="Path_7" data-name="Path 7" d="M103.165,5H51.948a4.268,4.268,0,0,0,0,8.537h51.217a4.268,4.268,0,0,1,4.268,4.268v85.36a4.268,4.268,0,0,1-4.268,4.268H17.8a4.268,4.268,0,0,1-4.268-4.268V51.948a4.268,4.268,0,0,0-8.537,0v51.217a12.8,12.8,0,0,0,12.8,12.8h85.36a12.8,12.8,0,0,0,12.8-12.8V17.8A12.8,12.8,0,0,0,103.165,5Z" transform="translate(-754.689 -217.569)" fill="rgba(0,111,255,0.4)"/>
      <path id="Path_8" data-name="Path 8" d="M55.12,1H13.49A12.49,12.49,0,0,0,1,13.49V55.12A12.49,12.49,0,0,0,13.49,67.61H55.12A12.49,12.49,0,0,0,67.61,55.12V13.49A12.49,12.49,0,0,0,55.12,1Zm4.163,54.12a4.163,4.163,0,0,1-4.163,4.163H13.49A4.163,4.163,0,0,1,9.327,55.12V13.49A4.163,4.163,0,0,1,13.49,9.327H55.12a4.163,4.163,0,0,1,4.163,4.163Zm24.98,12.49H71.773a4.163,4.163,0,0,0-4.163,4.163v12.49a4.163,4.163,0,0,0,8.327,0V75.937h8.327a4.163,4.163,0,0,0,0-8.327Zm8.324,41.63h12.49a4.163,4.163,0,0,0,4.163-4.163V92.587a4.163,4.163,0,1,0-8.327,0v8.327H92.587a4.163,4.163,0,1,0,0,8.327Z" transform="translate(-750.689 -213.569)" fill="#006fff"/>
    </g>
  </g>
</svg>
