<svg xmlns="http://www.w3.org/2000/svg" width="139" height="143.988" viewBox="0 0 139 143.988">
  <g id="rotate_icon" transform="translate(1578.003 337.188)">
    <g id="rotate_svg" transform="translate(-1578.003 -337.188)">
      <path id="Path_6" data-name="Path 6" d="M66.49,135.067a62.408,62.408,0,1,1,47.8-108.753l-12.768.913.673,9.6L131,34.8l-2.023-28.8-9.6.673.823,11.95A72,72,0,1,0,65.485,144.6a73.357,73.357,0,0,0,7.535.384,71.7,71.7,0,0,0,45.211-16.03l-5.952-7.469a62.12,62.12,0,0,1-45.786,13.58Z" transform="translate(-0.996 -0.998)" fill="#006fff"/>
    </g>
    <text id="_360" data-name="360" transform="translate(-1539.003 -244.188)" fill="#006fff" font-size="60" font-family="Wintermute"><tspan x="0" y="0">360</tspan></text>
  </g>
</svg>
