<svg xmlns="http://www.w3.org/2000/svg" xmlns:xlink="http://www.w3.org/1999/xlink" width="214" height="219" viewBox="0 0 214 219">
  <defs>
    <linearGradient id="linear-gradient" x1="0.584" x2="0.595" y2="1" gradientUnits="objectBoundingBox">
      <stop offset="0" stop-color="#cdedfb"/>
      <stop offset="1" stop-color="#58b0e8"/>
    </linearGradient>
    <linearGradient id="linear-gradient-2" x1="0.481" y1="0.126" x2="0.513" y2="1.128" gradientUnits="objectBoundingBox">
      <stop offset="0" stop-color="#a8e2fc"/>
      <stop offset="1" stop-color="#0c89db"/>
    </linearGradient>
    <radialGradient id="radial-gradient" cx="0.5" cy="0.5" r="0.5" gradientUnits="objectBoundingBox">
      <stop offset="0" stop-color="#bcf6d1"/>
      <stop offset="0.192" stop-color="#b7f6ce"/>
      <stop offset="0.293" stop-color="#b2f6cb"/>
      <stop offset="0.406" stop-color="#9af9bd"/>
      <stop offset="0.561" stop-color="#7ff9ad"/>
      <stop offset="0.648" stop-color="#78f9a9"/>
      <stop offset="0.774" stop-color="#5ff999"/>
      <stop offset="1" stop-color="#09ff63"/>
    </radialGradient>
  </defs>
  <g id="image_icon" data-name="image icon" transform="translate(-4054 -3875)">
    <g id="Group_10" data-name="Group 10" transform="translate(4054 3875)">
      <rect id="frame" width="196" height="196" rx="15" fill="#50e6ff"/>
      <g id="m2" transform="translate(8.629 100.746)" fill="url(#linear-gradient)">
        <path d="M164.079,95.326l-126.407.061S92.538,1.456,110.778,1.92C134.238,1.514,164.079,95.326,164.079,95.326Z" stroke="none"/>
        <path d="M 39.42310333251953 94.3858642578125 L 162.7029571533203 94.32649993896484 C 160.9854278564453 89.09228515625 154.210693359375 68.93672943115234 145.3731231689453 49.01440811157227 C 139.3857879638672 35.51729202270508 133.6405487060547 24.77277374267578 128.2969512939453 17.07930755615234 C 125.153938293457 12.55410671234131 122.1267547607422 9.061507225036621 119.2994918823242 6.69852352142334 C 116.298942565918 4.190707206726074 113.4830093383789 2.919140338897705 110.9299087524414 2.919140338897705 C 110.8854446411133 2.919140338897705 110.8395614624023 2.919540405273438 110.7951431274414 2.920306921005249 L 110.7737274169922 2.920673608779907 L 110.7523040771484 2.92012357711792 C 110.7152709960938 2.919190406799316 110.6797714233398 2.918740272521973 110.6423568725586 2.918740272521973 C 108.681037902832 2.918740272521973 106.0592422485352 4.197773456573486 102.8497924804688 6.720290184020996 C 99.81600952148438 9.104757308959961 96.24692535400391 12.6240234375 92.24167633056641 17.18037414550781 C 85.45472717285156 24.9011402130127 77.33134460449219 35.67695617675781 68.09720611572266 49.20848846435547 C 54.64877319335938 68.91553497314453 42.70514297485352 88.84697723388672 39.42310333251953 94.3858642578125 M 37.671875 95.38670349121094 C 37.671875 95.38670349121094 92.26551818847656 1.918743491172791 110.6423645019531 1.918743491172791 C 110.6884689331055 1.918743491172791 110.7322158813477 1.919295787811279 110.7778549194336 1.920457005500793 C 110.8279724121094 1.919589638710022 110.8797302246094 1.919143080711365 110.9299087524414 1.919143080711365 C 134.3666229248047 1.919143080711365 164.0790405273438 95.32584381103516 164.0790405273438 95.32584381103516 L 37.671875 95.38670349121094 Z" stroke="none" fill="rgba(255,255,255,0.56)"/>
      </g>
      <g id="m1" transform="translate(-18.244 55.863)" fill="url(#linear-gradient-2)">
        <path d="M71.717,8.264c27.326,1.825,56.274,132.375,56.274,132.375L65.761,139.3s-11.473-.036-22.777,0c-5.646.018-11.88.017-12.912,0-.827.085-1.943-1.645-2.756-1.741-2.736-.32-2.006-.969-3.482-2.031a7.445,7.445,0,0,1-2.9-3.627S42.887,10.756,69.824,8.264C80.237,8.242,49.833,8.5,71.717,8.264Z" stroke="none"/>
        <path d="M 71.86712646484375 9.279647827148438 C 71.39938354492188 9.290328979492188 70.33040618896484 9.303497314453125 69.47321319580078 9.313079833984375 C 66.55048370361328 9.742416381835938 63.49592590332031 11.77244567871094 60.39339447021484 15.34779357910156 C 57.4609375 18.72714233398438 54.44939422607422 23.53355407714844 51.44242858886719 29.63355255126953 C 46.34015655517578 39.98406219482422 41.17870330810547 54.16080474853516 36.10140991210938 71.76997375488281 C 31.57678985595703 87.46235656738281 27.96113586425781 103.0237579345703 25.72471618652344 113.3148803710938 C 23.5517578125 123.3140258789063 22.22493743896484 130.4075012207031 21.96363067626953 131.8235626220703 C 22.15389251708984 132.2939147949219 22.780517578125 133.5431518554688 24.41744232177734 134.7192077636719 C 25.02344512939453 135.1551208496094 25.33855438232422 135.5498657226563 25.56864929199219 135.8380737304688 C 25.76271820068359 136.0812072753906 25.83153533935547 136.1619567871094 25.98719024658203 136.2426452636719 C 26.24729919433594 136.3774566650391 26.73332214355469 136.4872741699219 27.431884765625 136.5690612792969 C 28.12792205810547 136.6506805419922 28.70420837402344 137.1693572998047 29.26155853271484 137.6709289550781 C 29.49330139160156 137.8795166015625 29.87245178222656 138.2207489013672 30.05364227294922 138.3025207519531 L 30.08859252929688 138.3031158447266 C 30.58238983154297 138.3114013671875 32.38108062744141 138.3163757324219 34.90008544921875 138.3163757324219 C 37.41904449462891 138.3163757324219 40.36430358886719 138.3114776611328 42.98066711425781 138.302978515625 C 46.31690216064453 138.2922210693359 49.9949951171875 138.2867736816406 53.91275787353516 138.2867736816406 C 60.58522796630859 138.2867736816406 65.71289825439453 138.3028106689453 65.763916015625 138.302978515625 L 65.77306365966797 138.3030090332031 L 65.78221130371094 138.3032073974609 L 126.7337951660156 139.6120910644531 C 126.1116790771484 136.8860473632813 124.4820938110352 129.8760375976563 122.0898818969727 120.529914855957 C 119.2393188476563 109.3930969238281 114.692138671875 92.56744384765625 109.2173385620117 75.65486145019531 C 103.0726318359375 56.67279052734375 97.03797149658203 41.45716857910156 91.28102874755859 30.4306640625 C 87.88626098632813 23.92855072021484 84.56027984619141 18.84521484375 81.39550018310547 15.32186889648438 C 78.04801177978516 11.5950927734375 74.84242248535156 9.562530517578125 71.86712646484375 9.279647827148438 M 70.94263458251953 8.262969970703125 C 71.27436065673828 8.262969970703125 71.52542877197266 8.263504028320313 71.70561981201172 8.264495849609375 C 70.94358062744141 8.272567749023438 70.24637603759766 8.280029296875 69.60736846923828 8.286956787109375 C 69.67964172363281 8.278549194335938 69.75147247314453 8.27105712890625 69.82380676269531 8.264373779296875 C 70.26869964599609 8.263427734375 70.63949584960938 8.262969970703125 70.94263458251953 8.262969970703125 Z M 71.71739196777344 8.264373779296875 C 71.71906280517578 8.264480590820313 71.71881103515625 8.26446533203125 71.72048187255859 8.264572143554688 C 71.71564483642578 8.264556884765625 71.71055603027344 8.2645263671875 71.70561981201172 8.264495849609375 C 71.70961761474609 8.264450073242188 71.71338653564453 8.264419555664063 71.71739196777344 8.264373779296875 Z M 71.72048187255859 8.264572143554688 C 72.14235687255859 8.266998291015625 72.15880584716797 8.272018432617188 71.90081787109375 8.278549194335938 C 71.84075927734375 8.273269653320313 71.78052520751953 8.268630981445313 71.72048187255859 8.264572143554688 Z M 71.90081787109375 8.278549194335938 C 99.17177581787109 10.67863464355469 127.9912643432617 140.6393127441406 127.9912643432617 140.6393127441406 L 65.76073455810547 139.302978515625 C 65.76073455810547 139.302978515625 60.66083526611328 139.2867736816406 53.91275024414063 139.2867736816406 C 50.53809356689453 139.2867736816406 46.75215911865234 139.2908172607422 42.98387908935547 139.302978515625 C 40.20095825195313 139.3120269775391 37.27519226074219 139.3163604736328 34.90007781982422 139.3163604736328 C 32.45613098144531 139.3163604736328 30.59519958496094 139.311767578125 30.07176971435547 139.302978515625 C 30.0518798828125 139.3050231933594 30.03171539306641 139.3060302734375 30.01149749755859 139.3060302734375 C 29.19083404541016 139.3060302734375 28.10965728759766 137.6553802490234 27.3154296875 137.562255859375 C 24.57917022705078 137.2418975830078 25.30971527099609 136.5928802490234 23.83350372314453 135.531005859375 C 21.45615386962891 133.8229827880859 20.93212127685547 131.904296875 20.93212127685547 131.904296875 C 20.93212127685547 131.904296875 42.65634918212891 12.03916931152344 69.39656829833984 8.313873291015625 C 70.54876708984375 8.301071166992188 71.52164459228516 8.288162231445313 71.90081787109375 8.278549194335938 Z M 69.60736846923828 8.286956787109375 C 69.53675079345703 8.295166015625 69.46711730957031 8.304046630859375 69.39656829833984 8.313873291015625 C 67.18839263916016 8.338409423828125 64.32044982910156 8.36260986328125 63.70685577392578 8.36260986328125 C 63.15625 8.36260986328125 64.42261505126953 8.343124389648438 69.60736846923828 8.286956787109375 Z" stroke="none" fill="rgba(255,255,255,0.56)"/>
      </g>
      <g id="sun" transform="translate(145 26)" fill="#fff8de" stroke="rgba(255,255,255,0.61)" stroke-width="1">
        <circle cx="16.5" cy="16.5" r="16.5" stroke="none"/>
        <circle cx="16.5" cy="16.5" r="16" fill="none"/>
      </g>
      <g id="boarder" fill="none" stroke="#fff" stroke-width="4">
        <rect width="196" height="196" rx="15" stroke="none"/>
        <rect x="2" y="2" width="192" height="192" rx="13" fill="none"/>
      </g>
    </g>
    <g id="plus" transform="translate(4198.901 4024.366)">
      <g id="BG" transform="translate(0.099 -0.366)" stroke="#fff" stroke-width="1" fill="url(#radial-gradient)">
        <ellipse cx="34.5" cy="35" rx="34.5" ry="35" stroke="none"/>
        <ellipse cx="34.5" cy="35" rx="34" ry="34.5" fill="none"/>
      </g>
      <path id="shadow" d="M14.539,32.538V21.461H3.461a3.461,3.461,0,0,1,0-6.923H14.539V3.461a3.461,3.461,0,0,1,6.923,0V14.539H32.538a3.461,3.461,0,1,1,0,6.923H21.461V32.538a3.461,3.461,0,1,1-6.923,0Z" transform="translate(15.099 18.634)" fill="#33ef72"/>
      <path id="top" d="M14.539,32.538V21.461H3.461a3.461,3.461,0,0,1,0-6.923H14.539V3.461a3.461,3.461,0,0,1,6.923,0V14.539H32.538a3.461,3.461,0,1,1,0,6.923H21.461V32.538a3.461,3.461,0,1,1-6.923,0Z" transform="translate(17.099 17.634)" fill="#fff"/>
    </g>
  </g>
</svg>
